<svg width="448" height="512" xmlns="http://www.w3.org/2000/svg" style="vector-effect: non-scaling-stroke;">
 <!--!Font Awesome Free 6.5.1 by @fontawesome - https://fontawesome.com License - https://fontawesome.com/license/free Copyright 2024 Fonticons, Inc.-->

 <g>
  <title>Layer 1</title>
  <g/>
  <g stroke-width="0">
   <title fill="#ffffff">Layer 1</title>
   <path id="svg_5" fill="#ffffff" d="m378.18168,512.61028c0,-2.036 -0.50452,-4.072 -1.45943,-5.78376l-42.63022,-244.89861c0.05408,-0.46847 0.32431,-0.84686 0.32431,-1.3333c0,-0.37839 -0.32431,-0.57657 -0.32431,-0.79278l30.41415,-249.56522l0.68468,-13.8017l-118.59351,0l-11.09898,-245.76344l-23.49527,0l-11.18906,245.76344l-119.2241,0l31.90963,262.91647l-43.47708,251.11479c-0.1081,0.41439 0.05408,0.86483 0.05408,1.27928c-0.05408,0.86483 -0.34234,1.60359 -0.23423,2.5225l308.33942,-1.65767l-0.00006,0zm-74.77409,-264.30385l-159.2057,0l79.53077,-205.42149l79.67493,205.42149zm-61.87328,252.01567l75.29658,-193.94411l33.85556,193.94411l-109.15214,0zm-111.22419,-193.92608l50.21575,129.18797l25.08083,64.75614l-108.89987,0l33.6033,-193.94411z" stroke-width="0"/>
  </g>
 </g>
</svg>