<svg width="283.46" height="283.464" xmlns="http://www.w3.org/2000/svg" version="1.1" xml:space="preserve">
 <g>
  <title>Layer 1</title>
  <path d="m178.87443,266.92155l-5.43755,0l0,-2.15976l-5.44464,0l0,-2.18105l-11.53171,0l4.45616,-24.03417c0.08696,-0.17037 0.1402,-0.34961 0.1402,-0.54837c0,-0.22183 -0.05856,-0.43302 -0.17214,-0.61403l-5.39318,-24.13177c0,-0.01065 0.00532,-0.01065 0.00532,-0.0213c0,-0.07986 -0.03194,-0.13132 -0.04437,-0.21118l2.7312,-16.07306l2.98675,0l-4.05509,-20.88415l-2.57148,-12.29659c0.01065,-0.06921 0.03904,-0.12068 0.03904,-0.18101c0,-0.06744 -0.05501,-0.1047 -0.06566,-0.16327l3.7534,-24.35893c0.0213,-0.10116 0.05324,-0.18811 0.05324,-0.28927s-0.04792,-0.18456 -0.07099,-0.27862c-0.01065,-0.03194 -0.01597,-0.06211 -0.02839,-0.09583c-0.0213,-0.06211 -0.01597,-0.1473 -0.05147,-0.20941l-4.57861,-24.44943c0,-0.01065 -0.01597,-0.01065 -0.01597,-0.0213l3.25649,-24.04836c0.06921,-0.15794 0.11358,-0.32654 0.11358,-0.504c0,-0.20054 -0.04969,-0.40107 -0.14375,-0.56966l-4.19884,-24.12112c0.00532,-0.04614 0.03194,-0.08341 0.03194,-0.13132c0,-0.03727 -0.03194,-0.05679 -0.03194,-0.07808l2.99562,-24.58076l0.06744,-1.35939l-11.68079,0l-1.09319,-24.20631l-2.31415,0l-1.10206,24.20631l-11.7429,0l3.14292,25.89578l-4.28224,24.73338c-0.01065,0.04082 0.00532,0.08518 0.00532,0.126c-0.00532,0.08518 -0.03372,0.15794 -0.02307,0.24845l3.28134,24.44056l-4.60701,24.64997c-0.01065,0.0213 -0.01065,0.05147 -0.01597,0.07276l-0.01242,0.05147c-0.00532,0.02307 0.00532,0.04259 0.00532,0.07454c-0.01597,0.1118 -0.04259,0.22183 -0.0213,0.33718l3.76405,24.59318l-2.59277,12.44566l-4.04976,20.94626l2.92641,0l2.74007,16.17954c-0.00532,0.02485 -0.01065,0.06211 -0.01065,0.09406l-5.47481,24.5222c-0.01775,0.06566 0,0.14552 0,0.21828c0,0.08696 -0.02307,0.17037 -0.01065,0.25378l4.51295,24.36425l-11.55301,0l0,2.18105l-5.43577,0l0,2.15976l-5.43932,0l0,2.4295l74.2871,0l0,-2.42241l0.00177,0zm-37.18082,-75.74232l10.54323,20.83801l-21.04919,0l10.50596,-20.83801zm0.01597,-49.46498l9.6488,20.66054l-19.25324,0l9.60444,-20.66054zm7.87415,-78.57999l-15.68086,0l7.83333,-20.23285l7.84753,20.23285zm-7.87947,29.17889l8.76857,20.44581l-17.5336,0l8.76503,-20.44581zm0.0213,148.25121l11.92391,22.01638l-23.8567,0l11.93279,-22.01638zm1.98052,-3.76759l3.49962,-6.9531l6.59107,-13.04017l4.47568,19.99327l-14.56638,0zm-0.06566,-49.59986l9.19627,-19.75015l4.12608,19.75015l-13.32234,0zm-0.09761,-49.63358l1.94857,-4.54844l6.44378,-14.91776l3.65934,19.4662l-12.05169,0zm-0.05324,-49.60696l7.41629,-19.1024l3.33458,19.1024l-10.75087,0zm-10.95495,-19.10062l4.94597,12.72428l2.47032,6.37811l-10.72602,0l3.30973,-19.1024zm-1.01865,49.25203l2.53598,5.9096l5.8191,13.54595l-12.00022,0l3.64514,-19.45555zm-0.87136,49.31769l9.18917,19.77144l-13.30992,0l4.12075,-19.77144zm-0.98316,49.43127l10.05165,19.94003l-14.50071,0l4.44906,-19.94003z" fill="#FFFFFF" id="svg_93"/>
 </g>

</svg>